<svg height="320" viewBox="0 0 1170 320" width="1170" xmlns="http://www.w3.org/2000/svg"><g fill="none" fill-rule="evenodd"><path d="m324 320 226.910608-226.5139949c18.069108-17.9813401 47.511126-17.9813401 65.580234 0l229.509158 226.5139949z" fill="#d0e7ff"/><path d="m998 128h56c6.62742 0 12 5.372583 12 12s-5.37258 12-12 12h-56c-6.627417 0-12-5.372583-12-12s5.372583-12 12-12zm-194 24h72c6.627417 0 12 5.372583 12 12s-5.372583 12-12 12h-72c-6.627417 0-12-5.372583-12-12s5.372583-12 12-12zm-692-48h32c6.627417 0 12 5.372583 12 12s-5.372583 12-12 12h-32c-6.627417 0-12-5.372583-12-12s5.372583-12 12-12zm311-40h16c6.627417 0 12 5.372583 12 12s-5.372583 12-12 12h-16c-6.627417 0-12-5.372583-12-12s5.372583-12 12-12zm559 0h32c6.62742 0 12 5.372583 12 12s-5.37258 12-12 12h-32c-6.627417 0-12-5.372583-12-12s5.372583-12 12-12zm-802 88h88c6.627417 0 12 5.372583 12 12s-5.372583 12-12 12h-88c-6.627417 0-12-5.372583-12-12s5.372583-12 12-12zm509 168h-410l172.364163-172.513995c18.013286-17.98134 47.364348-17.98134 65.377635 0h-.105961z" fill="#e3f1ff"/><path d="m147.5 224h375c26.233526 0 47.5 21.266474 47.5 47.5v1c0 26.233526-21.266474 47.5-47.5 47.5h-375c-26.233526 0-47.5-21.266474-47.5-47.5v-1c0-26.233526 21.266474-47.5 47.5-47.5zm878.5-48v144h-144c0-79.529004 64.470996-144 144-144z" fill="#36e084"/><path d="m340 320h-340c0-26.509668 21.490332-48 48-48h244c26.509668 0 48 21.490332 48 48zm79-96h-171c0-26.509668 21.490332-48 48-48h75c26.509668 0 48 21.490332 48 48zm607-48c79.529 0 144 64.470996 144 144h-144z" fill="#26d375"/><path d="m448.001833 206.872219c-.001833-.123926-.001833-.248-.001833-.372219 0-20.158393 16.117749-36.5 36-36.5s36 16.341607 36 36.5c0 .124219 0 .248293-.001833.372219.235223 25.857013-22.22085 59.127781-35.998167 59.127781s-36.23339-33.270768-35.998167-59.127781z" fill="#006efd"/><circle cx="484" cy="210" fill="#92c2fe" r="16"/><path d="m1127.83802 218.191273c26.05027 26.057716 42.16198 62.051676 42.16198 101.808727h-143.9707z" fill="#29c369"/><path d="m684 196c-19.882251 0-36-16.117749-36-36s16.117749-36 36-36 36 16.117749 36 36-16.117749 36-36 36zm72-42c-19.882251 0-36-16.117749-36-36s16.117749-36 36-36 36 16.117749 36 36-16.117749 36-36 36zm-72-42c-19.882251 0-36-16.117749-36-36s16.117749-36 36-36 36 16.117749 36 36-16.117749 36-36 36z" fill="#006efd"/><path d="m705.213203 138.795406c.781049.781048.781049 2.047378 0 2.828427l-19.798989 19.79899c-.781049.781048-2.047379.781048-2.828428 0-.781048-.781049-.781048-2.047379 0-2.828428l19.79899-19.798989c.781049-.781049 2.047379-.781049 2.828427 0zm-51.213203-62.795406c0-1.1045695.895431-2 2-2h28c1.104569 0 2 .8954305 2 2s-.895431 2-2 2h-28c-1.104569 0-2-.8954305-2-2zm102 12c1.104569 0 2 .8954305 2 2v28c0 1.104569-.895431 2-2 2s-2-.895431-2-2v-28c0-1.1045695.895431-2 2-2z" fill="#92c2fe"/><path d="m670.100505 146.109114c.781049-.781049 2.047379-.781049 2.828427 0l12.485282 12.485281c.781048.781049.781048 2.047379 0 2.828428-.781049.781048-2.047379.781048-2.828428 0l-12.485281-12.485282c-.781049-.781048-.781049-2.047378 0-2.828427zm27.631155-83.8835563.002399.0023989c.780111.7801111.781184 2.0445898.002398 2.8260242l-12.324646 12.366565c-.778399.7810463-2.042579.7831925-2.823626.0047936l-.002399-.0023948-.002398-.0023988c-.780112-.7801112-.781185-2.0445898-.002399-2.8260242l12.324647-12.366565c.778398-.7810464 2.042579-.7831926 2.823625-.0047937.0008.0007976.0016.0015959.002399.0023948zm56.889585 54.3602283c.78118-.780748 2.047343-.780845 2.828643-.000215l12.384886 12.38111c.781383.780713.781576 2.047043.000646 2.828211h-.000431c-.78118.780749-2.047344.780845-2.828643.000216l-12.384886-12.38111c-.781383-.780714-.781576-2.047044-.000646-2.828212.000071-.000071.000143-.000143.000431 0z" fill="#fff"/><path d="m484 60c8.829749 0 16 7.1585439 16 16 0 8.8297489-7.158544 16-16 16s-16-7.1585439-16-16 7.170251-16 16-16z" fill="#ffec00" fill-rule="nonzero"/><path d="m825 97v-35h.030656c1.056596-34.4208098 29.292238-62 63.969344-62s62.912748 27.5791902 63.969344 62h.030656v105h-60v-6.122968c-1.322862.081577-2.656597.122968-4 .122968-35.346224 0-64-28.653776-64-64z" fill="#212121"/><path d="m928.74272 47c.170102 1.6434679.25728 3.3115531.25728 5v19.6828228c4.660769 1.6473457 8 6.0923019 8 11.3171772 0 5.2457343-3.365946 9.7053099-8.055884 11.3367731-.539572 11.2562599-4.956402 21.4960909-11.944116 29.4131199v28.250107c0 11.045695-8.954305 20-20 20s-20-8.954305-20-20v-12.164295c-24.638122-2.032604-44-22.67305-44-47.835705v-40c0-1.6884469.087178-3.3565321.25728-5z" fill="#ad6b55"/><path d="m905 47.2850663c-5.471149 8.6972108-23.353027 12.7149337-40 12.7149337-10.329753 0-18.077067 0-23.241943 0-2.63283 0-6.582076 2.1830241-11.847736 6.5490723v-10.5667952c0-27.349597 22.276354-49.51208968 50.5-49.51208968 28.223647 0 50.5 22.16249268 50.5 49.51208968l-.129742 16.2486799c-9.695313-1.7068481-23.347575-15.724564-25.780579-24.9458907z" fill="#212121" fill-rule="nonzero"/><path d="m872.503479 70c2.667978-5.8970501 8.603102-10 15.496521-10s12.828543 4.1029499 15.496521 10h26.503479v2h-25.747196c.485751 1.5808441.747196 3.2598902.747196 5 0 9.3888407-7.611159 17-17 17s-17-7.6111593-17-17c0-1.7401098.261445-3.4191559.747196-5h-13.494392c.485751 1.5808441.747196 3.2598902.747196 5 0 9.3888407-7.611159 17-17 17s-17-7.6111593-17-17 7.611159-17 17-17c6.893419 0 12.828543 4.1029499 15.496521 10zm-43.773386 0h4.269907v2h-5.146471c-.552758 1.5638946-.853529 3.2468229-.853529 5 0 8.2842712 6.715729 15 15 15s15-6.7157288 15-15-6.715729-15-15-15c-5.756088 0-10.75492 3.2421966-13.269907 8zm59.269907 22c8.284271 0 15-6.7157288 15-15s-6.715729-15-15-15-15 6.7157288-15 15 6.715729 15 15 15z" fill="#ff61a5"/><path d="m865.013919 116c4.33887 0 8.217556-1.257587 11.241617-3.584123.854626-.628794.986107-1.886381.328702-2.703813-.723145-.817432-1.972213-.94319-2.826839-.314397-2.300916 1.823502-5.324977 2.766692-8.74348 2.766692-3.418504 0-6.442565-.94319-8.743481-2.766692-.854625-.628793-2.103694-.503035-2.826839.314397s-.525924 2.01214.328702 2.703813c3.089802 2.326536 6.968488 3.584123 11.241618 3.584123" fill="#664029" fill-rule="nonzero"/><path d="m863 72h4v13c0 1.1045695-.895431 2-2 2-2.209139 0-4 1.790861-4 4s1.790861 4 4 4c1.104569 0 2 .8954305 2 2s-.895431 2-2 2c-4.418278 0-8-3.581722-8-8 0-3.7276789 2.549546-6.8598794 6-7.747965z" fill="#664029"/><path d="m847 82c-3.313708 0-6-2.6862915-6-6s2.686292-6 6-6 6 2.6862915 6 6-2.686292 6-6 6zm38 0c-3.313708 0-6-2.6862915-6-6s2.686292-6 6-6 6 2.6862915 6 6-2.686292 6-6 6z" fill="#212121"/><path d="m976 206v114h-95v-38h-60v-76c0-29.823376 24.176624-54 54-54h2v-12h40v12h5c29.823376 0 54 24.176624 54 54z" fill="#ff61a5"/><path d="m932 320h-176c-4.418278 0-8-3.581722-8-8v-80c0-4.418278 3.581722-8 8-8h132c4.418278 0 8 3.581722 8 8v80h44c0 4.418278-3.581722 8-8 8z" fill="#006efd"/><path d="m814.388329 275.941922c-1.045729.963264-1.045729 2.593404 0 3.630766.971035 1.037362 2.614324 1.037362 3.660053 0l4.033528-4.001253c.522865-.51868 1.419205-.51868 1.942069 0l.672255.666876c.522865.518681.522865 1.407848 0 1.926529l-4.033528 4.001253c-2.464934 2.445209-6.423767 2.445209-8.814006 0-2.464933-2.44521-2.464933-6.372366 0-8.743478l4.033528-4.001253c.522865-.518681 1.419205-.518681 1.942069 0l.672255.666875c.522865.518681.522865 1.407848 0 1.926529zm17.829337-5.34291-4.031005 3.981542c-.522538.516126-1.418317.516126-1.940854 0l-.671834-.66359c-.522538-.516126-.522538-1.400913 0-1.917039l4.031004-3.981542c1.045076-.958519 1.045076-2.580629 0-3.61288-.970427-1.032252-2.612688-1.032252-3.657763 0l-4.031005 3.981542c-.522538.516125-1.418317.516125-1.940854 0-.149297-.147465-.522538-.516126-.671834-.663591-.522538-.516126-.522538-1.400913 0-1.917039l4.031004-3.981542c2.463392-2.433164 6.419749-2.433164 8.808492 0 2.463392 2.506897 2.463392 6.414707.074649 8.774139z" fill="#92c2fe" fill-rule="nonzero"/><path d="m922 294.668977v11.331023c0 3.313708-2.686292 6-6 6s-6-2.686292-6-6v-29c0-10.49341 8.50659-19 19-19s19 8.50659 19 19-8.50659 19-19 19c-2.472008 0-4.833754-.472087-7-1.331023z" fill="#ad6b55"/><path d="m232 48h8v34h-8z" fill="#664029"/><path d="m349 222h.187101v2h26.812899v68.908081c0 14.900555-12.065805 27.091919-26.812899 27.091919h-155.187101v-114c0-29.823376 24.176624-54 54-54h47c29.823376 0 54 24.176624 54 54z" fill="#ffec00"/><path d="m316 201v8c0 8.836556-7.163444 16-16 16h-10.221518l-25.43738 25.43738c-2.560127 2.803702-6.245206 4.56262-10.341102 4.56262-7.731986 0-14-6.268014-14-14 0-3.716962 1.448518-7.095605 3.811855-9.602227l-.014563-.014563 41.663103-41.663103c1.280298-1.654705 3.285533-2.720107 5.539605-2.720107h38c3.865993 0 7 3.134007 7 7s-3.134007 7-7 7z" fill="#efbda3"/><path d="m332 152h28c4.418278 0 8 3.581722 8 8v56c0 4.418278-3.581722 8-8 8h-28c-4.418278 0-8-3.581722-8-8v-56c0-4.418278 3.581722-8 8-8z" fill="#006efd"/><path d="m376 222v50h-.5c-11.874122 0-21.5-9.625878-21.5-21.5v-32.5h-1c-3.865993 0-7-3.134007-7-7 0-1.208612.306303-2.345683.845517-3.337821-2.811801-.908638-4.845517-3.547909-4.845517-6.662179 0-2.505975 1.316835-4.704387 3.296284-5.941016-.816182-1.144847-1.296284-2.545848-1.296284-4.058984 0-3.865993 3.134007-7 7-7h7.96316c5.33089.124524 10.577163 2.642684 13.863135 7.250086 2.157741 3.030094 3.201354 6.475269 3.173148 9.892771v19.411968c0 .055344-.014102.096853-.014102.138361v1.306814z" fill="#efbda3"/><path d="m240.040911 49.9999832h95.918178c.027185.6632892.040911 1.33005.040911 2.0000168v40c0 25.162655-19.361878 45.803101-44 47.835705v12.164295c0 11.045695-8.954305 20-20 20s-20-8.954305-20-20v-28.250107c-6.987714-7.917029-11.404544-18.15686-11.944116-29.4131199-4.689938-1.6314632-8.055884-6.0910388-8.055884-11.3367731 0-5.2248753 3.339231-9.6698315 8-11.3171772v-19.6828228c0-.6699668.013726-1.3367276.040912-2.0000168z" fill="#efbda3"/><path d="m236 71.6999457v-38.3998914c.96933-.1967635 1.972602-.3000543 3-.3000543h2c8.284271 0 15 6.7157288 15 15v9c0 8.2842712-6.715729 15-15 15h-2c-1.027398 0-2.03067-.1032908-3-.3000543z" fill="#664029"/><path d="m240.059584 94.2740269h5.861402c2.246562 0 4.005019 1.4948456 4.591171 3.4879732 0 .0996564.098048.1993127.098048.2989691s.098047.1993128.098047.3986255c1.172305 4.8831623 3.066329 9.2929853 5.802062 13.2803003l.098047.099657c.6842.996564 1.758457 1.594502 2.930762 1.594502 1.758457 0 3.12579-1.195877 3.516914-2.790379 1.074257-4.38488 4.884248-7.645384 9.475419-7.645384h19.536991 31.846191c4.200048 0 7.429121 2.692597 8.79752 6.379883-9.526733 24.487915-35.564434 36.147354-59.693662 28.173783-18.364687-5.979382-32.051455-22.523148-32.958912-43.2779301z" fill="#664029" fill-rule="nonzero"/><path d="m300 95c2.209139 0 4-1.790861 4-4s-1.790861-4-4-4c-1.104569 0-2-.8954305-2-2v-13c0-1.1045695.895431-2 2-2s2 .8954305 2 2v11.252035c3.450454.8880856 6 4.0202861 6 7.747965 0 4.418278-3.581722 8-8 8-1.104569 0-2-.8954305-2-2s.895431-2 2-2z" fill="#c4937a"/><path d="m299.038572 116.174463c-5.043619 0-9.170216-2.250316-11.348142-6.188369-.458511-.900127-1.604788-1.237674-2.636437-.787611-.917022.450063-1.260905 1.575221-.802394 2.587864 2.751064 5.175726 8.253194 8.213653 14.672345 8.213653 1.604788 0 3.209576-.225032 4.699736-.562579 1.031649-.225032 1.604788-1.237674 1.375532-2.250316-.114627-1.012642-1.146277-1.687737-2.177926-1.462705-1.146277.337547-2.407182.450063-3.782714.450063z" fill="#c4937a" fill-rule="nonzero"/><path d="m276 82c-3.313708 0-6-2.6862915-6-6s2.686292-6 6-6 6 2.6862915 6 6-2.686292 6-6 6zm46 0c-3.313708 0-6-2.6862915-6-6s2.686292-6 6-6 6 2.6862915 6 6-2.686292 6-6 6z" fill="#212121"/><path d="m336 50h28c2.209139 0 4 1.790861 4 4s-1.790861 4-4 4h-132v-18c0-22.09139 17.90861-40 40-40h40c13.254834 0 24 10.745166 24 24z" fill="#ff4c00"/><path d="m300 34v-4h20v4zm0-8v-4h20v4zm0-8v-4h20v4zm-20 24v-4h40v4z" fill="#fff" opacity=".9"/><path d="m280 14h20v20h-20zm4 3c-.552285 0-1 .4477153-1 1s.447715 1 1 1 1-.4477153 1-1-.447715-1-1-1zm12 0c-.552285 0-1 .4477153-1 1s.447715 1 1 1 1-.4477153 1-1-.447715-1-1-1zm-6 0c-.552285 0-1 .4477153-1 1s.447715 1 1 1 1-.4477153 1-1-.447715-1-1-1zm-6 12c-.552285 0-1 .4477153-1 1s.447715 1 1 1 1-.4477153 1-1-.447715-1-1-1zm12 0c-.552285 0-1 .4477153-1 1s.447715 1 1 1 1-.4477153 1-1-.447715-1-1-1zm-6 0c-.552285 0-1 .4477153-1 1s.447715 1 1 1 1-.4477153 1-1-.447715-1-1-1zm-6-6c-.552285 0-1 .4477153-1 1s.447715 1 1 1 1-.4477153 1-1-.447715-1-1-1zm3-3c-.552285 0-1 .4477153-1 1s.447715 1 1 1 1-.4477153 1-1-.447715-1-1-1zm6 0c-.552285 0-1 .4477153-1 1s.447715 1 1 1 1-.4477153 1-1-.447715-1-1-1zm-6 6c-.552285 0-1 .4477153-1 1s.447715 1 1 1 1-.4477153 1-1-.447715-1-1-1zm6 0c-.552285 0-1 .4477153-1 1s.447715 1 1 1 1-.4477153 1-1-.447715-1-1-1zm3-3c-.552285 0-1 .4477153-1 1s.447715 1 1 1 1-.4477153 1-1-.447715-1-1-1zm-6 0c-.552285 0-1 .4477153-1 1s.447715 1 1 1 1-.4477153 1-1-.447715-1-1-1z" fill="#ffc9b3"/></g></svg>